Coordinates
version=1
nRows=5
nColumns=46
inDegrees=yes

Units are S.I. units (second, meters, Newtons, ...)
Angles are in degrees.

endheader
time	pelvis_tilt	pelvis_list	pelvis_rotation	pelvis_tx	pelvis_ty	pelvis_tz	bb_angle	bb_tx	bb_ty	bb_tz	hip_flexion_r	hip_adduction_r	hip_rotation_r	knee_angle_r	knee_angle_r_beta	ankle_angle_r	subtalar_angle_r	mtp_angle_r	crank_angle_r	hip_flexion_l	hip_adduction_l	hip_rotation_l	knee_angle_l	knee_angle_l_beta	ankle_angle_l	subtalar_angle_l	mtp_angle_l	crank_angle_l	lumbar_extension	lumbar_bending	lumbar_rotation	arm_flex_r	arm_add_r	arm_rot_r	elbow_flex_r	pro_sup_r	wrist_flex_r	wrist_dev_r	arm_flex_l	arm_add_l	arm_rot_l	elbow_flex_l	pro_sup_l	wrist_flex_l	wrist_dev_l
      7.50500000	    -27.95043424	     -4.60419654	    -10.78383780	      0.46558220	      1.15704537	     -0.20708312	      0.00000000	      0.50000000	      0.00000000	      0.25000000	     72.66176978	      9.64579395	      4.63397380	     98.48023192	      1.71880430	     18.52987279	     -5.99400512	      0.00000000	      0.00000000	     20.24921121	    -14.05756997	    -12.70954739	     19.27211387	      0.33636184	    -21.08642548	      5.56774322	      0.00000000	      0.00000000	    -55.22708767	      1.83470331	     11.97684258	     58.24120977	    -46.98583155	     58.28442316	     92.07510142	     61.90439023	      0.00000000	      0.00000000	     35.04443990	    -25.34850832	     18.74590095	     80.81545953	     51.59212326	      0.00000000	      0.00000000
      7.51000000	    -28.07231315	     -4.03638168	    -10.75225206	      0.46543546	      1.15882215	     -0.20731123	      0.00000000	      0.50000000	      0.00000000	      0.25000000	     72.20130494	      9.19981183	      4.78251258	     96.48551479	      1.68398991	     19.64095745	     -6.65430776	      0.00000000	      0.00000000	     21.09563089	    -13.56921642	    -12.01065179	     21.45647368	      0.37448611	    -20.79084294	      4.42989453	      0.00000000	      0.00000000	    -55.53986157	      1.43269792	     13.18943972	     56.45488114	    -49.92687056	     56.40450215	     94.97842958	     61.25099696	      0.00000000	      0.00000000	     36.74245278	    -23.47024130	     19.84713223	     79.39327786	     51.93722749	      0.00000000	      0.00000000
      7.51500000	    -28.01257047	     -3.33850045	    -10.84442294	      0.46534214	      1.16089422	     -0.20715362	      0.00000000	      0.50000000	      0.00000000	      0.25000000	     71.47400247	      8.88953403	      5.17071787	     94.36949102	      1.64705833	     20.53735958	     -7.37546295	      0.00000000	      0.00000000	     21.80650442	    -12.98352155	    -11.39184987	     23.75328204	      0.41457298	    -20.50796409	      3.40232638	      0.00000000	      0.00000000	    -55.92839714	      0.87257083	     12.85839269	     56.66131862	    -50.10268483	     56.22295619	     95.22566244	     61.23596531	      0.00000000	      0.00000000	     37.04640223	    -23.22804613	     19.66594237	     79.55669043	     51.95375869	      0.00000000	      0.00000000
      7.52000000	    -28.19848657	     -2.80631139	    -10.70665991	      0.46504111	      1.16255491	     -0.20742744	      0.00000000	      0.50000000	      0.00000000	      0.25000000	     70.95135687	      8.42449136	      5.22442985	     92.10418837	      1.60752134	     20.85736243	     -8.67011003	      0.00000000	      0.00000000	     23.08058127	    -12.48088306	    -10.14891628	     26.41993668	      0.46111488	    -20.30996292	      2.16762913	      0.00000000	      0.00000000	    -56.10898438	      0.68021435	     12.57342398	     56.85056651	    -50.61564813	     56.15535948	     95.98264530	     61.25525792	      0.00000000	      0.00000000	     37.57782541	    -25.45393635	     21.86593599	     80.54424212	     52.37163555	      0.00000000	      0.00000000
      7.52500000	    -28.14892049	     -2.18517550	    -10.68234879	      0.46495502	      1.16456115	     -0.20720449	      0.00000000	      0.50000000	      0.00000000	      0.25000000	     70.10824746	      8.05044583	      5.49371520	     89.74315373	      1.56631351	     21.19590837	     -9.31935600	      0.00000000	      0.00000000	     24.12069625	    -11.92289405	     -9.23070103	     29.08157898	      0.50756930	    -20.28021387	      1.09302167	      0.00000000	      0.00000000	    -56.48066741	      0.19551802	     12.28857924	     56.93808447	    -50.91974508	     55.91224227	     96.35223565	     61.21922641	      0.00000000	      0.00000000	     37.94972183	    -25.38801066	     22.13224733	     80.73192923	     52.43792845	      0.00000000	      0.00000000
